<svg width="402" height="336" viewBox="0 0 402 336" fill="none" xmlns="http://www.w3.org/2000/svg">
<path d="M0 5C0 2.23858 2.23858 0 5 0H397C399.761 0 402 2.23858 402 5V233H0V5Z" fill="#494949"/>
<rect x="16" y="14" width="369" height="205" rx="5" fill="#E3E3E3"/>
<path d="M105 203C105 200.239 107.239 198 110 198H292C294.761 198 297 200.239 297 203V219H105V203Z" fill="#D7D7D7"/>
<path d="M16 19C16 16.2386 18.2386 14 21 14H380C382.761 14 385 16.2386 385 19V26H16V19Z" fill="#D7D7D7"/>
<path d="M16 213.396L264.48 14H380C382.761 14 385 16.2386 385 19V40.3753L162.404 219H21C18.2386 219 16 216.761 16 214V213.396Z" fill="black" fill-opacity="0.06"/>
<path d="M0 233H402V277C402 279.761 399.761 282 397 282H221.714C221.503 286.63 221.429 292.716 222 302.38C222.8 315.916 248 324 265 324H323C325.761 324 328 326.239 328 329V331C328 333.761 325.761 336 323 336H79C76.2386 336 74 333.761 74 331V329C74 326.239 76.2386 324 79 324H137C154 324 179.2 315.916 180 302.38C180.571 292.716 180.497 286.63 180.286 282H5C2.23858 282 0 279.761 0 277V233Z" fill="#DADADA"/>
<circle cx="24" cy="20" r="4" fill="#AEAEAE"/>
<circle cx="35" cy="20" r="4" fill="#AEAEAE"/>
<circle cx="46" cy="20" r="4" fill="#AEAEAE"/>
</svg>
