<svg width="75" height="75" viewBox="0 0 75 75" fill="none" xmlns="http://www.w3.org/2000/svg">
<path fill-rule="evenodd" clip-rule="evenodd" d="M41.0355 1.53554C39.0829 -0.417079 35.9171 -0.417081 33.9644 1.53554L1.53551 33.9645C-0.41711 35.9171 -0.417111 39.0829 1.53551 41.0355L33.9644 73.4645C35.9171 75.4171 39.0829 75.4171 41.0355 73.4645L73.4644 41.0355C75.4171 39.0829 75.4171 35.9171 73.4644 33.9645L41.0355 1.53554ZM38 51C45.1797 51 51 45.1797 51 38C51 30.8203 45.1797 25 38 25C30.8203 25 25 30.8203 25 38C25 45.1797 30.8203 51 38 51Z" fill="#0E9B93"/>
</svg>
